<svg id="visual" viewBox="0 0 960 150" width="960" height="150" xmlns="http://www.w3.org/2000/svg" xmlns:xlink="http://www.w3.org/1999/xlink" version="1.1"><rect x="0" y="0" width="960" height="150" fill="#202731"></rect><path d="M0 118L7.7 120C15.3 122 30.7 126 45.8 124.3C61 122.7 76 115.3 91.2 115.7C106.3 116 121.7 124 137 125.8C152.3 127.7 167.7 123.3 183 123.2C198.3 123 213.7 127 228.8 123.5C244 120 259 109 274.2 104C289.3 99 304.7 100 320 102.2C335.3 104.3 350.7 107.7 365.8 107.7C381 107.7 396 104.3 411.2 105.5C426.3 106.7 441.7 112.3 457 114.5C472.3 116.7 487.7 115.3 503 109.8C518.3 104.3 533.7 94.7 548.8 96.2C564 97.7 579 110.3 594.2 117.3C609.3 124.3 624.7 125.7 640 121.2C655.3 116.7 670.7 106.3 685.8 103C701 99.7 716 103.3 731.2 104.7C746.3 106 761.7 105 777 109.3C792.3 113.7 807.7 123.3 823 121.8C838.3 120.3 853.7 107.7 868.8 102C884 96.3 899 97.7 914.2 100C929.3 102.3 944.7 105.7 952.3 107.3L960 109L960 0L952.3 0C944.7 0 929.3 0 914.2 0C899 0 884 0 868.8 0C853.7 0 838.3 0 823 0C807.7 0 792.3 0 777 0C761.7 0 746.3 0 731.2 0C716 0 701 0 685.8 0C670.7 0 655.3 0 640 0C624.7 0 609.3 0 594.2 0C579 0 564 0 548.8 0C533.7 0 518.3 0 503 0C487.7 0 472.3 0 457 0C441.7 0 426.3 0 411.2 0C396 0 381 0 365.8 0C350.7 0 335.3 0 320 0C304.7 0 289.3 0 274.2 0C259 0 244 0 228.8 0C213.7 0 198.3 0 183 0C167.7 0 152.3 0 137 0C121.7 0 106.3 0 91.2 0C76 0 61 0 45.8 0C30.7 0 15.3 0 7.7 0L0 0Z" fill="#fa7268"></path><path d="M0 92L7.7 90.3C15.3 88.7 30.7 85.3 45.8 87C61 88.7 76 95.3 91.2 97.7C106.3 100 121.7 98 137 95.3C152.3 92.7 167.7 89.3 183 88.7C198.3 88 213.7 90 228.8 88.8C244 87.7 259 83.3 274.2 82C289.3 80.7 304.7 82.3 320 81.2C335.3 80 350.7 76 365.8 74C381 72 396 72 411.2 76.8C426.3 81.7 441.7 91.3 457 91C472.3 90.7 487.7 80.3 503 75C518.3 69.7 533.7 69.3 548.8 69C564 68.7 579 68.3 594.2 74.2C609.3 80 624.7 92 640 94.3C655.3 96.7 670.7 89.3 685.8 89.2C701 89 716 96 731.2 94.8C746.3 93.7 761.7 84.3 777 79.8C792.3 75.3 807.7 75.7 823 76.5C838.3 77.3 853.7 78.7 868.8 79.2C884 79.7 899 79.3 914.2 77.5C929.3 75.7 944.7 72.3 952.3 70.7L960 69L960 0L952.3 0C944.7 0 929.3 0 914.2 0C899 0 884 0 868.8 0C853.7 0 838.3 0 823 0C807.7 0 792.3 0 777 0C761.7 0 746.3 0 731.2 0C716 0 701 0 685.8 0C670.7 0 655.3 0 640 0C624.7 0 609.3 0 594.2 0C579 0 564 0 548.8 0C533.7 0 518.3 0 503 0C487.7 0 472.3 0 457 0C441.7 0 426.3 0 411.2 0C396 0 381 0 365.8 0C350.7 0 335.3 0 320 0C304.7 0 289.3 0 274.2 0C259 0 244 0 228.8 0C213.7 0 198.3 0 183 0C167.7 0 152.3 0 137 0C121.7 0 106.3 0 91.2 0C76 0 61 0 45.8 0C30.7 0 15.3 0 7.7 0L0 0Z" fill="#ef5f67"></path><path d="M0 68L7.7 69C15.3 70 30.7 72 45.8 71.3C61 70.7 76 67.3 91.2 69.2C106.3 71 121.7 78 137 75.8C152.3 73.7 167.7 62.3 183 60.3C198.3 58.3 213.7 65.7 228.8 66.8C244 68 259 63 274.2 59.2C289.3 55.3 304.7 52.7 320 55.5C335.3 58.3 350.7 66.7 365.8 68.8C381 71 396 67 411.2 63.8C426.3 60.7 441.7 58.3 457 56.8C472.3 55.3 487.7 54.7 503 57.8C518.3 61 533.7 68 548.8 72.5C564 77 579 79 594.2 74.3C609.3 69.7 624.7 58.3 640 53.8C655.3 49.3 670.7 51.7 685.8 57.3C701 63 716 72 731.2 71.2C746.3 70.3 761.7 59.7 777 60C792.3 60.3 807.7 71.7 823 77.7C838.3 83.7 853.7 84.3 868.8 81C884 77.7 899 70.3 914.2 64.5C929.3 58.7 944.7 54.3 952.3 52.2L960 50L960 0L952.3 0C944.7 0 929.3 0 914.2 0C899 0 884 0 868.8 0C853.7 0 838.3 0 823 0C807.7 0 792.3 0 777 0C761.7 0 746.3 0 731.2 0C716 0 701 0 685.8 0C670.7 0 655.3 0 640 0C624.7 0 609.3 0 594.2 0C579 0 564 0 548.8 0C533.7 0 518.3 0 503 0C487.7 0 472.3 0 457 0C441.7 0 426.3 0 411.2 0C396 0 381 0 365.8 0C350.7 0 335.3 0 320 0C304.7 0 289.3 0 274.2 0C259 0 244 0 228.8 0C213.7 0 198.3 0 183 0C167.7 0 152.3 0 137 0C121.7 0 106.3 0 91.2 0C76 0 61 0 45.8 0C30.7 0 15.3 0 7.7 0L0 0Z" fill="#e34c67"></path><path d="M0 36L7.7 36C15.3 36 30.7 36 45.8 36.2C61 36.3 76 36.7 91.2 37C106.3 37.3 121.7 37.7 137 40.5C152.3 43.3 167.7 48.7 183 48.7C198.3 48.7 213.7 43.3 228.8 40.3C244 37.3 259 36.7 274.2 39.7C289.3 42.7 304.7 49.3 320 52.8C335.3 56.3 350.7 56.7 365.8 54.5C381 52.3 396 47.7 411.2 45.8C426.3 44 441.7 45 457 45.2C472.3 45.3 487.7 44.7 503 42C518.3 39.3 533.7 34.7 548.8 37.2C564 39.7 579 49.3 594.2 54.3C609.3 59.3 624.7 59.7 640 55.3C655.3 51 670.7 42 685.8 42.2C701 42.3 716 51.7 731.2 52.8C746.3 54 761.7 47 777 41.8C792.3 36.7 807.7 33.3 823 33.5C838.3 33.7 853.7 37.3 868.8 40.8C884 44.3 899 47.7 914.2 46.7C929.3 45.7 944.7 40.3 952.3 37.7L960 35L960 0L952.3 0C944.7 0 929.3 0 914.2 0C899 0 884 0 868.8 0C853.7 0 838.3 0 823 0C807.7 0 792.3 0 777 0C761.7 0 746.3 0 731.2 0C716 0 701 0 685.8 0C670.7 0 655.3 0 640 0C624.7 0 609.3 0 594.2 0C579 0 564 0 548.8 0C533.7 0 518.3 0 503 0C487.7 0 472.3 0 457 0C441.7 0 426.3 0 411.2 0C396 0 381 0 365.8 0C350.7 0 335.3 0 320 0C304.7 0 289.3 0 274.2 0C259 0 244 0 228.8 0C213.7 0 198.3 0 183 0C167.7 0 152.3 0 137 0C121.7 0 106.3 0 91.2 0C76 0 61 0 45.8 0C30.7 0 15.3 0 7.7 0L0 0Z" fill="#d53867"></path><path d="M0 25L7.7 26.7C15.3 28.3 30.7 31.7 45.8 30C61 28.3 76 21.7 91.2 20.2C106.3 18.7 121.7 22.3 137 21.3C152.3 20.3 167.7 14.7 183 13.7C198.3 12.7 213.7 16.3 228.8 16.3C244 16.3 259 12.7 274.2 15.3C289.3 18 304.7 27 320 27.7C335.3 28.3 350.7 20.7 365.8 19.8C381 19 396 25 411.2 24.5C426.3 24 441.7 17 457 14.8C472.3 12.7 487.7 15.3 503 19C518.3 22.7 533.7 27.3 548.8 27.3C564 27.3 579 22.7 594.2 23.5C609.3 24.3 624.7 30.7 640 31.5C655.3 32.3 670.7 27.7 685.8 26.8C701 26 716 29 731.2 27.3C746.3 25.7 761.7 19.3 777 18.8C792.3 18.3 807.7 23.7 823 24.3C838.3 25 853.7 21 868.8 21.7C884 22.3 899 27.7 914.2 26.3C929.3 25 944.7 17 952.3 13L960 9L960 0L952.3 0C944.7 0 929.3 0 914.2 0C899 0 884 0 868.8 0C853.7 0 838.3 0 823 0C807.7 0 792.3 0 777 0C761.7 0 746.3 0 731.2 0C716 0 701 0 685.8 0C670.7 0 655.3 0 640 0C624.7 0 609.3 0 594.2 0C579 0 564 0 548.8 0C533.7 0 518.3 0 503 0C487.7 0 472.3 0 457 0C441.7 0 426.3 0 411.2 0C396 0 381 0 365.8 0C350.7 0 335.3 0 320 0C304.7 0 289.3 0 274.2 0C259 0 244 0 228.8 0C213.7 0 198.3 0 183 0C167.7 0 152.3 0 137 0C121.7 0 106.3 0 91.2 0C76 0 61 0 45.8 0C30.7 0 15.3 0 7.7 0L0 0Z" fill="#c62368"></path></svg>