<svg id="visual" viewBox="0 0 960 150" width="960" height="150" xmlns="http://www.w3.org/2000/svg" xmlns:xlink="http://www.w3.org/1999/xlink" version="1.1"><rect x="0" y="0" width="960" height="150" fill="#202731"></rect><path d="M0 47L7.7 46C15.3 45 30.7 43 45.8 43.8C61 44.7 76 48.3 91.2 46.5C106.3 44.7 121.7 37.3 137 37.8C152.3 38.3 167.7 46.7 183 49.3C198.3 52 213.7 49 228.8 49C244 49 259 52 274.2 51.7C289.3 51.3 304.7 47.7 320 48.2C335.3 48.7 350.7 53.3 365.8 49.8C381 46.3 396 34.7 411.2 29C426.3 23.3 441.7 23.7 457 27.7C472.3 31.7 487.7 39.3 503 45.3C518.3 51.3 533.7 55.7 548.8 56.3C564 57 579 54 594.2 50.2C609.3 46.3 624.7 41.7 640 40.3C655.3 39 670.7 41 685.8 40C701 39 716 35 731.2 35.5C746.3 36 761.7 41 777 45.3C792.3 49.7 807.7 53.3 823 52.5C838.3 51.7 853.7 46.3 868.8 43.3C884 40.3 899 39.7 914.2 37C929.3 34.3 944.7 29.7 952.3 27.3L960 25L960 151L952.3 151C944.7 151 929.3 151 914.2 151C899 151 884 151 868.8 151C853.7 151 838.3 151 823 151C807.7 151 792.3 151 777 151C761.7 151 746.3 151 731.2 151C716 151 701 151 685.8 151C670.7 151 655.3 151 640 151C624.7 151 609.3 151 594.2 151C579 151 564 151 548.8 151C533.7 151 518.3 151 503 151C487.7 151 472.3 151 457 151C441.7 151 426.3 151 411.2 151C396 151 381 151 365.8 151C350.7 151 335.3 151 320 151C304.7 151 289.3 151 274.2 151C259 151 244 151 228.8 151C213.7 151 198.3 151 183 151C167.7 151 152.3 151 137 151C121.7 151 106.3 151 91.2 151C76 151 61 151 45.8 151C30.7 151 15.3 151 7.7 151L0 151Z" fill="#fa7268"></path><path d="M0 61L7.7 64C15.3 67 30.7 73 45.8 75.3C61 77.7 76 76.3 91.2 71.7C106.3 67 121.7 59 137 54.8C152.3 50.7 167.7 50.3 183 52.5C198.3 54.7 213.7 59.3 228.8 61.7C244 64 259 64 274.2 61.3C289.3 58.7 304.7 53.3 320 54.5C335.3 55.7 350.7 63.3 365.8 68.7C381 74 396 77 411.2 77C426.3 77 441.7 74 457 74C472.3 74 487.7 77 503 75.2C518.3 73.3 533.7 66.7 548.8 64C564 61.3 579 62.7 594.2 65.2C609.3 67.7 624.7 71.3 640 71.8C655.3 72.3 670.7 69.7 685.8 67.5C701 65.3 716 63.7 731.2 62.8C746.3 62 761.7 62 777 62.5C792.3 63 807.7 64 823 62.5C838.3 61 853.7 57 868.8 55.8C884 54.7 899 56.3 914.2 54.5C929.3 52.7 944.7 47.3 952.3 44.7L960 42L960 151L952.3 151C944.7 151 929.3 151 914.2 151C899 151 884 151 868.8 151C853.7 151 838.3 151 823 151C807.7 151 792.3 151 777 151C761.7 151 746.3 151 731.2 151C716 151 701 151 685.8 151C670.7 151 655.3 151 640 151C624.7 151 609.3 151 594.2 151C579 151 564 151 548.8 151C533.7 151 518.3 151 503 151C487.7 151 472.3 151 457 151C441.7 151 426.3 151 411.2 151C396 151 381 151 365.8 151C350.7 151 335.3 151 320 151C304.7 151 289.3 151 274.2 151C259 151 244 151 228.8 151C213.7 151 198.3 151 183 151C167.7 151 152.3 151 137 151C121.7 151 106.3 151 91.2 151C76 151 61 151 45.8 151C30.7 151 15.3 151 7.7 151L0 151Z" fill="#ef5f67"></path><path d="M0 73L7.7 73.2C15.3 73.3 30.7 73.7 45.8 77.2C61 80.7 76 87.3 91.2 85.3C106.3 83.3 121.7 72.7 137 67.5C152.3 62.3 167.7 62.7 183 65.8C198.3 69 213.7 75 228.8 75.8C244 76.7 259 72.3 274.2 69.8C289.3 67.3 304.7 66.7 320 70C335.3 73.3 350.7 80.7 365.8 81.7C381 82.7 396 77.3 411.2 76.3C426.3 75.3 441.7 78.7 457 77.5C472.3 76.3 487.7 70.7 503 69.2C518.3 67.7 533.7 70.3 548.8 73.5C564 76.7 579 80.3 594.2 80.2C609.3 80 624.7 76 640 73.5C655.3 71 670.7 70 685.8 68.3C701 66.7 716 64.3 731.2 68.3C746.3 72.3 761.7 82.7 777 84C792.3 85.3 807.7 77.7 823 78C838.3 78.3 853.7 86.7 868.8 86.3C884 86 899 77 914.2 71.7C929.3 66.3 944.7 64.7 952.3 63.8L960 63L960 151L952.3 151C944.7 151 929.3 151 914.2 151C899 151 884 151 868.8 151C853.7 151 838.3 151 823 151C807.7 151 792.3 151 777 151C761.7 151 746.3 151 731.2 151C716 151 701 151 685.8 151C670.7 151 655.3 151 640 151C624.7 151 609.3 151 594.2 151C579 151 564 151 548.8 151C533.7 151 518.3 151 503 151C487.7 151 472.3 151 457 151C441.7 151 426.3 151 411.2 151C396 151 381 151 365.8 151C350.7 151 335.3 151 320 151C304.7 151 289.3 151 274.2 151C259 151 244 151 228.8 151C213.7 151 198.3 151 183 151C167.7 151 152.3 151 137 151C121.7 151 106.3 151 91.2 151C76 151 61 151 45.8 151C30.7 151 15.3 151 7.7 151L0 151Z" fill="#e34c67"></path><path d="M0 120L7.7 119C15.3 118 30.7 116 45.8 115.8C61 115.7 76 117.3 91.2 114.5C106.3 111.7 121.7 104.3 137 103.2C152.3 102 167.7 107 183 108C198.3 109 213.7 106 228.8 102.5C244 99 259 95 274.2 96.5C289.3 98 304.7 105 320 104.3C335.3 103.7 350.7 95.3 365.8 96C381 96.7 396 106.3 411.2 111.2C426.3 116 441.7 116 457 113.7C472.3 111.3 487.7 106.7 503 105.5C518.3 104.3 533.7 106.7 548.8 107.8C564 109 579 109 594.2 108.8C609.3 108.7 624.7 108.3 640 108.8C655.3 109.3 670.7 110.7 685.8 111.5C701 112.3 716 112.7 731.2 109.2C746.3 105.7 761.7 98.3 777 94.5C792.3 90.7 807.7 90.3 823 94.5C838.3 98.7 853.7 107.3 868.8 110.2C884 113 899 110 914.2 109C929.3 108 944.7 109 952.3 109.5L960 110L960 151L952.3 151C944.7 151 929.3 151 914.2 151C899 151 884 151 868.8 151C853.7 151 838.3 151 823 151C807.7 151 792.3 151 777 151C761.7 151 746.3 151 731.2 151C716 151 701 151 685.8 151C670.7 151 655.3 151 640 151C624.7 151 609.3 151 594.2 151C579 151 564 151 548.8 151C533.7 151 518.3 151 503 151C487.7 151 472.3 151 457 151C441.7 151 426.3 151 411.2 151C396 151 381 151 365.8 151C350.7 151 335.3 151 320 151C304.7 151 289.3 151 274.2 151C259 151 244 151 228.8 151C213.7 151 198.3 151 183 151C167.7 151 152.3 151 137 151C121.7 151 106.3 151 91.2 151C76 151 61 151 45.8 151C30.7 151 15.3 151 7.7 151L0 151Z" fill="#d53867"></path><path d="M0 121L7.7 119.8C15.3 118.7 30.7 116.3 45.8 118.5C61 120.7 76 127.3 91.2 129.7C106.3 132 121.7 130 137 130.7C152.3 131.3 167.7 134.7 183 132.8C198.3 131 213.7 124 228.8 122.3C244 120.7 259 124.3 274.2 124.5C289.3 124.7 304.7 121.3 320 121.7C335.3 122 350.7 126 365.8 126.5C381 127 396 124 411.2 122C426.3 120 441.7 119 457 120C472.3 121 487.7 124 503 124.3C518.3 124.7 533.7 122.3 548.8 124.2C564 126 579 132 594.2 134.5C609.3 137 624.7 136 640 135.7C655.3 135.3 670.7 135.7 685.8 132.5C701 129.3 716 122.7 731.2 122C746.3 121.3 761.7 126.7 777 128.2C792.3 129.7 807.7 127.3 823 126.7C838.3 126 853.7 127 868.8 125.5C884 124 899 120 914.2 117.7C929.3 115.3 944.7 114.7 952.3 114.3L960 114L960 151L952.3 151C944.7 151 929.3 151 914.2 151C899 151 884 151 868.8 151C853.7 151 838.3 151 823 151C807.7 151 792.3 151 777 151C761.7 151 746.3 151 731.2 151C716 151 701 151 685.8 151C670.7 151 655.3 151 640 151C624.7 151 609.3 151 594.2 151C579 151 564 151 548.8 151C533.7 151 518.3 151 503 151C487.7 151 472.3 151 457 151C441.7 151 426.3 151 411.2 151C396 151 381 151 365.8 151C350.7 151 335.3 151 320 151C304.7 151 289.3 151 274.2 151C259 151 244 151 228.8 151C213.7 151 198.3 151 183 151C167.7 151 152.3 151 137 151C121.7 151 106.3 151 91.2 151C76 151 61 151 45.8 151C30.7 151 15.3 151 7.7 151L0 151Z" fill="#c62368"></path></svg>